{"title":"BrÃƒÂ¶llopsfotografen.2009.DVDRip.XviD.AC3.(5.1).-Zen_Bud","uid":5661792,"size":1469480966,"categoryP":"video","categoryS":"movies","magnet":"?xt=urn:btih:7a2223e1747b4ba0f3847ba8c0ecf9b9c1c055ec&amp;dn=Br%C3%83%C2%B6llopsfotografen.2009.DVDRip.XviD.AC3.%285.1%29.-Zen_Bud&amp;tr=udp%3A%2F%2Ftracker.openbittorrent.com%3A80&amp;tr=udp%3A%2F%2Fopen.demonii.com%3A1337&amp;tr=udp%3A%2F%2Ftracker.coppersurfer.tk%3A6969&amp;tr=udp%3A%2F%2Fexodus.desync.com%3A6969","seeders":2,"leechers":1,"uploader":"Zen_Bud","files":-1,"time":1278000672,"description":"General\nComplete name                    : Brollopsfotografen.avi\nFormat                           : AVI\nFile size                        : 1.37 GiB\nDuration                         : 1h 48mn\nOverall bit rate                 : 1 806 Kbps\n\nVideo\n\nFormat                           : MPEG-4 Visual\nCodec ID/Hint                    : XviD\nDuration                         : 1h 48mn\nBit rate                         : 1 347 Kbps\nWidth                            : 718 pixels\nHeight                           : 434 pixels\nDisplay aspect ratio             : 2.35:1\nStream size                      : 1.02 GiB (75%)\nWriting library                  : XviD 1.1.2 (UTC 2006-11-01)\n\nAudio\n\nFormat                           : AC-3\nDuration                         : 1h 48mn\nBit rate                         : 448 Kbps\nChannel(s)                       : 6 channels\nChannel positions                : Front: L C R, Side: L R, LFE\nSampling rate                    : 48.0 KHz\nStream size                      : 348 MiB (25%)\n\n\n","torrent":{"xt":"urn:btih:7a2223e1747b4ba0f3847ba8c0ecf9b9c1c055ec","amp;dn":"Br%C3%83%C2%B6llopsfotografen.2009.DVDRip.XviD.AC3.%285.1%29.-Zen_Bud","amp;tr":["udp%3A%2F%2Ftracker.openbittorrent.com%3A80","udp%3A%2F%2Fopen.demonii.com%3A1337","udp%3A%2F%2Ftracker.coppersurfer.tk%3A6969","udp%3A%2F%2Fexodus.desync.com%3A6969"],"infoHash":"7a2223e1747b4ba0f3847ba8c0ecf9b9c1c055ec","infoHashBuffer":{"type":"Buffer","data":[122,34,35,225,116,123,75,160,243,132,123,168,192,236,249,185,193,192,85,236]},"announce":[],"urlList":[]}}